+ filenameToUse=/home/horvathandras/vatic/vatic/public/videouploads/DJI_0005_gazos_gabonaban_valtok_kotcse_20180710_napos_kalaszos_T4.avi
+ filenameNoDot=DJI_0005_gazos_gabonaban_valtok_kotcse_20180710_napos_kalaszos_T4
+ FullUploadPath=/home/horvathandras/vatic/vatic/public/videouploads/DJI_0005_gazos_gabonaban_valtok_kotcse_20180710_napos_kalaszos_T4.avi
+ VideoDataDir=/home/horvathandras/vatic/vatic/videos
+ AvailableObjectTypes='PozitívROI NegatívROI Túrás ~Friss ~1-2Hetes ~Régebbi ~Egyéb1 ~Egyéb2 ~Egyéb3 Rágás ~Friss ~1-2Hetes ~Régebbi ~Egyéb1 ~Egyéb2 ~Egyéb3 Törés ~Friss ~1-2Hetes ~Régebbi ~Egyéb1 ~Egyéb2 ~Egyéb3 Taposás ~Friss ~1-2Hetes ~Régebbi ~Egyéb1 ~Egyéb2 ~Egyéb3 EgészségesNövény Egyéb1 Egyéb2 Egyéb3 Egyéb4 Egyéb5 Bizonytalan Művelőút Gktaposás Vetőhiba Széldöntés Jégkár Belvíz Aszály Erózió EgyszikűGyom KétszikűGyom EgyébNövvédelmiPR'
++ dirname /home/horvathandras/vatic/vatic/vatic_publisher.sh
+ cd /home/horvathandras/vatic/vatic
+ touch /home/horvathandras/vatic/vatic/public/videouploads/DJI_0005_gazos_gabonaban_valtok_kotcse_20180710_napos_kalaszos_T4.avi
+ chmod 744 /home/horvathandras/vatic/vatic/public/videouploads/DJI_0005_gazos_gabonaban_valtok_kotcse_20180710_napos_kalaszos_T4.avi
+ mkdir /home/horvathandras/vatic/vatic/videos/DJI_0005_gazos_gabonaban_valtok_kotcse_20180710_napos_kalaszos_T4
+ turkic extract /home/horvathandras/vatic/vatic/public/videouploads/DJI_0005_gazos_gabonaban_valtok_kotcse_20180710_napos_kalaszos_T4.avi /home/horvathandras/vatic/vatic/videos/DJI_0005_gazos_gabonaban_valtok_kotcse_20180710_napos_kalaszos_T4 --no-resize
ffmpeg version 2.8.14-0ubuntu0.16.04.1 Copyright (c) 2000-2018 the FFmpeg developers
  built with gcc 5.4.0 (Ubuntu 5.4.0-6ubuntu1~16.04.9) 20160609
  configuration: --prefix=/usr --extra-version=0ubuntu0.16.04.1 --build-suffix=-ffmpeg --toolchain=hardened --libdir=/usr/lib/x86_64-linux-gnu --incdir=/usr/include/x86_64-linux-gnu --cc=cc --cxx=g++ --enable-gpl --enable-shared --disable-stripping --disable-decoder=libopenjpeg --disable-decoder=libschroedinger --enable-avresample --enable-avisynth --enable-gnutls --enable-ladspa --enable-libass --enable-libbluray --enable-libbs2b --enable-libcaca --enable-libcdio --enable-libflite --enable-libfontconfig --enable-libfreetype --enable-libfribidi --enable-libgme --enable-libgsm --enable-libmodplug --enable-libmp3lame --enable-libopenjpeg --enable-libopus --enable-libpulse --enable-librtmp --enable-libschroedinger --enable-libshine --enable-libsnappy --enable-libsoxr --enable-libspeex --enable-libssh --enable-libtheora --enable-libtwolame --enable-libvorbis --enable-libvpx --enable-libwavpack --enable-libwebp --enable-libx265 --enable-libxvid --enable-libzvbi --enable-openal --enable-opengl --enable-x11grab --enable-libdc1394 --enable-libiec61883 --enable-libzmq --enable-frei0r --enable-libx264 --enable-libopencv
  libavutil      54. 31.100 / 54. 31.100
  libavcodec     56. 60.100 / 56. 60.100
  libavformat    56. 40.101 / 56. 40.101
  libavdevice    56.  4.100 / 56.  4.100
  libavfilter     5. 40.101 /  5. 40.101
  libavresample   2.  1.  0 /  2.  1.  0
  libswscale      3.  1.101 /  3.  1.101
  libswresample   1.  2.101 /  1.  2.101
  libpostproc    53.  3.100 / 53.  3.100
Input #0, mov,mp4,m4a,3gp,3g2,mj2, from '/home/horvathandras/vatic/vatic/public/videouploads/DJI_0005_gazos_gabonaban_valtok_kotcse_20180710_napos_kalaszos_T4.avi':
  Metadata:
    major_brand     : qt  
    minor_version   : 537986816
    compatible_brands: qt  
    creation_time   : 2018-07-10 09:20:35
    location        : +46.715889+17.872177+31.900
    location-{    : +46.715889+17.872177+31.900
    comment         : DE=None, Mode=P, DSW=0001
  Duration: 00:00:20.12, start: 0.000000, bitrate: 101180 kb/s
    Stream #0:0(eng): Video: h264 (High) (avc1 / 0x31637661), yuv420p(tv, bt709), 4096x2160 [SAR 1:1 DAR 256:135], 100971 kb/s, 50 fps, 50 tbr, 50k tbn, 100 tbc (default)
    Metadata:
      creation_time   : 2018-07-10 09:20:35
      handler_name    : DJI.AVC
      encoder         : AVC encoder
    Stream #0:1(eng): Data: none (priv / 0x76697270), 196 kb/s
    Metadata:
      creation_time   : 2018-07-10 09:20:35
      handler_name    : DJI.Meta
Please use -b:a or -b:v, -b is ambiguous
[swscaler @ 0xb6caa0] deprecated pixel format used, make sure you did set range correctly
Output #0, image2, to '/tmp/pyvision-ffmpeg-658005540/%d.jpg':
  Metadata:
    major_brand     : qt  
    minor_version   : 537986816
    compatible_brands: qt  
    comment         : DE=None, Mode=P, DSW=0001
    location        : +46.715889+17.872177+31.900
    location-{    : +46.715889+17.872177+31.900
    encoder         : Lavf56.40.101
    Stream #0:0(eng): Video: mjpeg, yuvj420p(pc), 4096x2160 [SAR 1:1 DAR 256:135], q=2-31, 10000 kb/s, 50 fps, 50 tbn, 50 tbc (default)
    Metadata:
      creation_time   : 2018-07-10 09:20:35
      handler_name    : DJI.AVC
      encoder         : Lavc56.60.100 mjpeg
Stream mapping:
  Stream #0:0 -> #0:0 (h264 (native) -> mjpeg (native))
Press [q] to stop, [?] for help
frame=    1 fps=0.0 q=18.6 size=N/A time=00:00:00.02 bitrate=N/A    frame=    5 fps=4.1 q=24.8 size=N/A time=00:00:00.10 bitrate=N/A    frame=   10 fps=5.5 q=24.8 size=N/A time=00:00:00.20 bitrate=N/A    frame=   15 fps=6.1 q=24.8 size=N/A time=00:00:00.30 bitrate=N/A    frame=   20 fps=6.5 q=24.8 size=N/A time=00:00:00.40 bitrate=N/A    frame=   25 fps=6.8 q=24.8 size=N/A time=00:00:00.50 bitrate=N/A    frame=   29 fps=6.8 q=24.8 size=N/A time=00:00:00.58 bitrate=N/A    frame=   34 fps=6.9 q=24.8 size=N/A time=00:00:00.68 bitrate=N/A    frame=   39 fps=7.1 q=24.8 size=N/A time=00:00:00.78 bitrate=N/A    frame=   44 fps=7.2 q=24.8 size=N/A time=00:00:00.88 bitrate=N/A    frame=   49 fps=7.3 q=24.8 size=N/A time=00:00:00.98 bitrate=N/A    frame=   54 fps=7.4 q=24.8 size=N/A time=00:00:01.08 bitrate=N/A    frame=   59 fps=7.4 q=24.8 size=N/A time=00:00:01.18 bitrate=N/A    frame=   63 fps=7.5 q=24.8 size=N/A time=00:00:01.26 bitrate=N/A    frame=   68 fps=7.5 q=24.8 size=N/A time=00:00:01.36 bitrate=N/A    frame=   73 fps=7.5 q=24.8 size=N/A time=00:00:01.46 bitrate=N/A    frame=   78 fps=7.6 q=24.8 size=N/A time=00:00:01.56 bitrate=N/A    frame=   83 fps=7.6 q=24.8 size=N/A time=00:00:01.66 bitrate=N/A    frame=   88 fps=7.6 q=24.8 size=N/A time=00:00:01.76 bitrate=N/A    frame=   92 fps=7.6 q=24.8 size=N/A time=00:00:01.84 bitrate=N/A    frame=   97 fps=7.7 q=24.8 size=N/A time=00:00:01.94 bitrate=N/A    frame=  102 fps=7.7 q=24.8 size=N/A time=00:00:02.04 bitrate=N/A    frame=  107 fps=7.7 q=24.8 size=N/A time=00:00:02.14 bitrate=N/A    frame=  112 fps=7.7 q=24.8 size=N/A time=00:00:02.24 bitrate=N/A    frame=  117 fps=7.8 q=24.8 size=N/A time=00:00:02.34 bitrate=N/A    frame=  121 fps=7.8 q=24.8 size=N/A time=00:00:02.42 bitrate=N/A    frame=  126 fps=7.8 q=24.8 size=N/A time=00:00:02.52 bitrate=N/A    frame=  131 fps=7.8 q=24.8 size=N/A time=00:00:02.62 bitrate=N/A    frame=  136 fps=7.8 q=24.8 size=N/A time=00:00:02.72 bitrate=N/A    frame=  141 fps=7.8 q=24.8 size=N/A time=00:00:02.82 bitrate=N/A    frame=  146 fps=7.8 q=24.8 size=N/A time=00:00:02.92 bitrate=N/A    frame=  150 fps=7.8 q=24.8 size=N/A time=00:00:03.00 bitrate=N/A    frame=  154 fps=7.8 q=24.8 size=N/A time=00:00:03.08 bitrate=N/A    frame=  159 fps=7.8 q=24.8 size=N/A time=00:00:03.18 bitrate=N/A    frame=  164 fps=7.8 q=24.8 size=N/A time=00:00:03.28 bitrate=N/A    frame=  169 fps=7.9 q=24.8 size=N/A time=00:00:03.38 bitrate=N/A    frame=  174 fps=7.9 q=24.8 size=N/A time=00:00:03.48 bitrate=N/A    frame=  179 fps=7.9 q=24.8 size=N/A time=00:00:03.58 bitrate=N/A    frame=  184 fps=7.9 q=24.8 size=N/A time=00:00:03.68 bitrate=N/A    frame=  189 fps=7.9 q=24.8 size=N/A time=00:00:03.78 bitrate=N/A    frame=  194 fps=7.9 q=24.8 size=N/A time=00:00:03.88 bitrate=N/A    frame=  199 fps=7.9 q=24.8 size=N/A time=00:00:03.98 bitrate=N/A    frame=  204 fps=7.9 q=24.8 size=N/A time=00:00:04.08 bitrate=N/A    frame=  209 fps=7.9 q=24.8 size=N/A time=00:00:04.18 bitrate=N/A    frame=  213 fps=7.9 q=24.8 size=N/A time=00:00:04.26 bitrate=N/A    frame=  218 fps=7.9 q=24.8 size=N/A time=00:00:04.36 bitrate=N/A    frame=  223 fps=7.9 q=24.8 size=N/A time=00:00:04.46 bitrate=N/A    frame=  228 fps=7.9 q=24.8 size=N/A time=00:00:04.56 bitrate=N/A    frame=  233 fps=7.9 q=24.8 size=N/A time=00:00:04.66 bitrate=N/A    frame=  238 fps=7.9 q=24.8 size=N/A time=00:00:04.76 bitrate=N/A    frame=  242 fps=7.9 q=24.8 size=N/A time=00:00:04.84 bitrate=N/A    frame=  247 fps=7.9 q=24.8 size=N/A time=00:00:04.94 bitrate=N/A    frame=  252 fps=7.9 q=24.8 size=N/A time=00:00:05.04 bitrate=N/A    frame=  256 fps=7.9 q=24.8 size=N/A time=00:00:05.12 bitrate=N/A    frame=  261 fps=7.9 q=24.8 size=N/A time=00:00:05.22 bitrate=N/A    frame=  265 fps=7.9 q=24.8 size=N/A time=00:00:05.30 bitrate=N/A    frame=  269 fps=7.9 q=24.8 size=N/A time=00:00:05.38 bitrate=N/A    frame=  274 fps=7.9 q=24.8 size=N/A time=00:00:05.48 bitrate=N/A    frame=  279 fps=7.9 q=24.8 size=N/A time=00:00:05.58 bitrate=N/A    frame=  284 fps=7.9 q=24.8 size=N/A time=00:00:05.68 bitrate=N/A    frame=  289 fps=7.9 q=24.8 size=N/A time=00:00:05.78 bitrate=N/A    frame=  294 fps=7.9 q=24.8 size=N/A time=00:00:05.88 bitrate=N/A    frame=  299 fps=7.9 q=24.8 size=N/A time=00:00:05.98 bitrate=N/A    frame=  303 fps=7.9 q=24.8 size=N/A time=00:00:06.06 bitrate=N/A    frame=  308 fps=7.9 q=24.8 size=N/A time=00:00:06.16 bitrate=N/A    frame=  313 fps=7.9 q=24.8 size=N/A time=00:00:06.26 bitrate=N/A    frame=  318 fps=7.9 q=24.8 size=N/A time=00:00:06.36 bitrate=N/A    frame=  323 fps=7.9 q=24.8 size=N/A time=00:00:06.46 bitrate=N/A    frame=  328 fps=7.9 q=24.8 size=N/A time=00:00:06.56 bitrate=N/A    frame=  332 fps=7.9 q=24.8 size=N/A time=00:00:06.64 bitrate=N/A    frame=  337 fps=7.9 q=24.8 size=N/A time=00:00:06.74 bitrate=N/A    frame=  342 fps=7.9 q=24.8 size=N/A time=00:00:06.84 bitrate=N/A    frame=  347 fps=7.9 q=24.8 size=N/A time=00:00:06.94 bitrate=N/A    frame=  352 fps=7.9 q=24.8 size=N/A time=00:00:07.04 bitrate=N/A    frame=  357 fps=7.9 q=24.8 size=N/A time=00:00:07.14 bitrate=N/A    frame=  361 fps=7.9 q=24.8 size=N/A time=00:00:07.22 bitrate=N/A    frame=  366 fps=7.9 q=24.8 size=N/A time=00:00:07.32 bitrate=N/A    frame=  371 fps=7.9 q=24.8 size=N/A time=00:00:07.42 bitrate=N/A    frame=  376 fps=7.9 q=24.8 size=N/A time=00:00:07.52 bitrate=N/A    frame=  381 fps=7.9 q=24.8 size=N/A time=00:00:07.62 bitrate=N/A    frame=  386 fps=7.9 q=24.8 size=N/A time=00:00:07.72 bitrate=N/A    frame=  390 fps=7.9 q=24.8 size=N/A time=00:00:07.80 bitrate=N/A    frame=  395 fps=7.9 q=24.8 size=N/A time=00:00:07.90 bitrate=N/A    frame=  400 fps=7.9 q=24.8 size=N/A time=00:00:08.00 bitrate=N/A    frame=  405 fps=7.9 q=24.8 size=N/A time=00:00:08.10 bitrate=N/A    frame=  410 fps=7.9 q=24.8 size=N/A time=00:00:08.20 bitrate=N/A    frame=  415 fps=7.9 q=24.8 size=N/A time=00:00:08.30 bitrate=N/A    frame=  419 fps=7.9 q=24.8 size=N/A time=00:00:08.38 bitrate=N/A    frame=  424 fps=7.9 q=24.8 size=N/A time=00:00:08.48 bitrate=N/A    frame=  429 fps=7.9 q=24.8 size=N/A time=00:00:08.58 bitrate=N/A    frame=  434 fps=7.9 q=24.8 size=N/A time=00:00:08.68 bitrate=N/A    frame=  439 fps=7.9 q=24.8 size=N/A time=00:00:08.78 bitrate=N/A    frame=  444 fps=7.9 q=24.8 size=N/A time=00:00:08.88 bitrate=N/A    frame=  449 fps=7.9 q=24.8 size=N/A time=00:00:08.98 bitrate=N/A    frame=  453 fps=7.9 q=24.8 size=N/A time=00:00:09.06 bitrate=N/A    frame=  458 fps=7.9 q=24.8 size=N/A time=00:00:09.16 bitrate=N/A    frame=  463 fps=7.9 q=24.8 size=N/A time=00:00:09.26 bitrate=N/A    frame=  468 fps=7.9 q=24.8 size=N/A time=00:00:09.36 bitrate=N/A    frame=  473 fps=7.9 q=24.8 size=N/A time=00:00:09.46 bitrate=N/A    frame=  478 fps=7.9 q=24.8 size=N/A time=00:00:09.56 bitrate=N/A    frame=  482 fps=7.9 q=24.8 size=N/A time=00:00:09.64 bitrate=N/A    frame=  487 fps=7.9 q=24.8 size=N/A time=00:00:09.74 bitrate=N/A    frame=  492 fps=7.9 q=24.8 size=N/A time=00:00:09.84 bitrate=N/A    frame=  497 fps=7.9 q=24.8 size=N/A time=00:00:09.94 bitrate=N/A    frame=  502 fps=8.0 q=24.8 size=N/A time=00:00:10.04 bitrate=N/A    frame=  507 fps=8.0 q=24.8 size=N/A time=00:00:10.14 bitrate=N/A    frame=  511 fps=7.9 q=24.8 size=N/A time=00:00:10.22 bitrate=N/A    frame=  516 fps=7.9 q=24.8 size=N/A time=00:00:10.32 bitrate=N/A    frame=  521 fps=8.0 q=24.8 size=N/A time=00:00:10.42 bitrate=N/A    frame=  526 fps=8.0 q=24.8 size=N/A time=00:00:10.52 bitrate=N/A    frame=  531 fps=8.0 q=24.8 size=N/A time=00:00:10.62 bitrate=N/A    frame=  536 fps=8.0 q=24.8 size=N/A time=00:00:10.72 bitrate=N/A    frame=  541 fps=8.0 q=24.8 size=N/A time=00:00:10.82 bitrate=N/A    frame=  546 fps=8.0 q=24.8 size=N/A time=00:00:10.92 bitrate=N/A    frame=  551 fps=8.0 q=24.8 size=N/A time=00:00:11.02 bitrate=N/A    frame=  555 fps=8.0 q=24.8 size=N/A time=00:00:11.10 bitrate=N/A    frame=  559 fps=7.9 q=24.8 size=N/A time=00:00:11.18 bitrate=N/A    frame=  563 fps=7.9 q=24.8 size=N/A time=00:00:11.26 bitrate=N/A    frame=  567 fps=7.9 q=24.8 size=N/A time=00:00:11.34 bitrate=N/A    frame=  570 fps=7.9 q=24.8 size=N/A time=00:00:11.40 bitrate=N/A    frame=  574 fps=7.9 q=24.8 size=N/A time=00:00:11.48 bitrate=N/A    frame=  578 fps=7.9 q=24.8 size=N/A time=00:00:11.56 bitrate=N/A    frame=  582 fps=7.9 q=24.8 size=N/A time=00:00:11.64 bitrate=N/A    frame=  586 fps=7.9 q=24.8 size=N/A time=00:00:11.72 bitrate=N/A    frame=  590 fps=7.9 q=24.8 size=N/A time=00:00:11.80 bitrate=N/A    frame=  594 fps=7.9 q=24.8 size=N/A time=00:00:11.88 bitrate=N/A    frame=  598 fps=7.9 q=24.8 size=N/A time=00:00:11.96 bitrate=N/A    frame=  602 fps=7.9 q=24.8 size=N/A time=00:00:12.04 bitrate=N/A    frame=  606 fps=7.9 q=24.8 size=N/A time=00:00:12.12 bitrate=N/A    frame=  610 fps=7.9 q=24.8 size=N/A time=00:00:12.20 bitrate=N/A    frame=  614 fps=7.9 q=24.8 size=N/A time=00:00:12.28 bitrate=N/A    frame=  618 fps=7.9 q=24.8 size=N/A time=00:00:12.36 bitrate=N/A    frame=  622 fps=7.9 q=24.8 size=N/A time=00:00:12.44 bitrate=N/A    frame=  626 fps=7.9 q=24.8 size=N/A time=00:00:12.52 bitrate=N/A    frame=  630 fps=7.9 q=24.8 size=N/A time=00:00:12.60 bitrate=N/A    frame=  634 fps=7.9 q=24.8 size=N/A time=00:00:12.68 bitrate=N/A    frame=  638 fps=7.9 q=24.8 size=N/A time=00:00:12.76 bitrate=N/A    frame=  642 fps=7.9 q=24.8 size=N/A time=00:00:12.84 bitrate=N/A    frame=  646 fps=7.9 q=24.8 size=N/A time=00:00:12.92 bitrate=N/A    frame=  650 fps=7.9 q=24.8 size=N/A time=00:00:13.00 bitrate=N/A    frame=  655 fps=7.9 q=24.8 size=N/A time=00:00:13.10 bitrate=N/A    frame=  660 fps=7.9 q=24.8 size=N/A time=00:00:13.20 bitrate=N/A    frame=  664 fps=7.9 q=24.8 size=N/A time=00:00:13.28 bitrate=N/A    frame=  669 fps=7.9 q=24.8 size=N/A time=00:00:13.38 bitrate=N/A    frame=  674 fps=7.9 q=24.8 size=N/A time=00:00:13.48 bitrate=N/A    frame=  679 fps=7.9 q=24.8 size=N/A time=00:00:13.58 bitrate=N/A    frame=  684 fps=7.9 q=24.8 size=N/A time=00:00:13.68 bitrate=N/A    frame=  689 fps=7.9 q=24.8 size=N/A time=00:00:13.78 bitrate=N/A    frame=  693 fps=7.9 q=24.8 size=N/A time=00:00:13.86 bitrate=N/A    frame=  698 fps=7.9 q=24.8 size=N/A time=00:00:13.96 bitrate=N/A    frame=  703 fps=7.9 q=24.8 size=N/A time=00:00:14.06 bitrate=N/A    frame=  708 fps=7.9 q=24.8 size=N/A time=00:00:14.16 bitrate=N/A    frame=  713 fps=7.9 q=24.8 size=N/A time=00:00:14.26 bitrate=N/A    frame=  718 fps=7.9 q=24.8 size=N/A time=00:00:14.36 bitrate=N/A    frame=  722 fps=7.9 q=24.8 size=N/A time=00:00:14.44 bitrate=N/A    frame=  727 fps=7.9 q=24.8 size=N/A time=00:00:14.54 bitrate=N/A    frame=  732 fps=7.9 q=24.8 size=N/A time=00:00:14.64 bitrate=N/A    frame=  737 fps=7.9 q=24.8 size=N/A time=00:00:14.74 bitrate=N/A    frame=  742 fps=7.9 q=24.8 size=N/A time=00:00:14.84 bitrate=N/A    frame=  747 fps=7.9 q=24.8 size=N/A time=00:00:14.94 bitrate=N/A    frame=  751 fps=7.9 q=24.8 size=N/A time=00:00:15.02 bitrate=N/A    frame=  756 fps=7.9 q=24.8 size=N/A time=00:00:15.12 bitrate=N/A    frame=  761 fps=7.9 q=24.8 size=N/A time=00:00:15.22 bitrate=N/A    frame=  766 fps=7.9 q=24.8 size=N/A time=00:00:15.32 bitrate=N/A    frame=  771 fps=7.9 q=24.8 size=N/A time=00:00:15.42 bitrate=N/A    frame=  776 fps=7.9 q=24.8 size=N/A time=00:00:15.52 bitrate=N/A    frame=  780 fps=7.9 q=24.8 size=N/A time=00:00:15.60 bitrate=N/A    frame=  785 fps=7.9 q=24.8 size=N/A time=00:00:15.70 bitrate=N/A    frame=  790 fps=7.9 q=24.8 size=N/A time=00:00:15.80 bitrate=N/A    frame=  795 fps=7.9 q=24.8 size=N/A time=00:00:15.90 bitrate=N/A    frame=  800 fps=7.9 q=24.8 size=N/A time=00:00:16.00 bitrate=N/A    frame=  805 fps=7.9 q=24.8 size=N/A time=00:00:16.10 bitrate=N/A    frame=  810 fps=7.9 q=24.8 size=N/A time=00:00:16.20 bitrate=N/A    frame=  815 fps=7.9 q=24.8 size=N/A time=00:00:16.30 bitrate=N/A    frame=  820 fps=7.9 q=24.8 size=N/A time=00:00:16.40 bitrate=N/A    frame=  825 fps=7.9 q=24.8 size=N/A time=00:00:16.50 bitrate=N/A    frame=  830 fps=7.9 q=24.8 size=N/A time=00:00:16.60 bitrate=N/A    frame=  835 fps=7.9 q=24.8 size=N/A time=00:00:16.70 bitrate=N/A    frame=  839 fps=7.9 q=24.8 size=N/A time=00:00:16.78 bitrate=N/A    frame=  843 fps=7.9 q=24.8 size=N/A time=00:00:16.86 bitrate=N/A    frame=  848 fps=7.9 q=24.8 size=N/A time=00:00:16.96 bitrate=N/A    frame=  853 fps=7.9 q=24.8 size=N/A time=00:00:17.06 bitrate=N/A    frame=  858 fps=7.9 q=24.8 size=N/A time=00:00:17.16 bitrate=N/A    frame=  863 fps=7.9 q=24.8 size=N/A time=00:00:17.26 bitrate=N/A    frame=  868 fps=7.9 q=24.8 size=N/A time=00:00:17.36 bitrate=N/A    frame=  872 fps=7.9 q=24.8 size=N/A time=00:00:17.44 bitrate=N/A    frame=  877 fps=7.9 q=24.8 size=N/A time=00:00:17.54 bitrate=N/A    frame=  882 fps=7.9 q=24.8 size=N/A time=00:00:17.64 bitrate=N/A    frame=  887 fps=7.9 q=24.8 size=N/A time=00:00:17.74 bitrate=N/A    frame=  892 fps=7.9 q=24.8 size=N/A time=00:00:17.84 bitrate=N/A    frame=  897 fps=7.9 q=24.8 size=N/A time=00:00:17.94 bitrate=N/A    frame=  901 fps=7.9 q=24.8 size=N/A time=00:00:18.02 bitrate=N/A    frame=  906 fps=7.9 q=24.8 size=N/A time=00:00:18.12 bitrate=N/A    frame=  911 fps=7.9 q=24.8 size=N/A time=00:00:18.22 bitrate=N/A    frame=  916 fps=7.9 q=24.8 size=N/A time=00:00:18.32 bitrate=N/A    frame=  921 fps=7.9 q=24.8 size=N/A time=00:00:18.42 bitrate=N/A    frame=  926 fps=7.9 q=24.8 size=N/A time=00:00:18.52 bitrate=N/A    frame=  931 fps=7.9 q=24.8 size=N/A time=00:00:18.62 bitrate=N/A    frame=  936 fps=7.9 q=24.8 size=N/A time=00:00:18.72 bitrate=N/A    frame=  941 fps=7.9 q=24.8 size=N/A time=00:00:18.82 bitrate=N/A    frame=  946 fps=7.9 q=24.8 size=N/A time=00:00:18.92 bitrate=N/A    frame=  951 fps=7.9 q=24.8 size=N/A time=00:00:19.02 bitrate=N/A    frame=  956 fps=7.9 q=24.8 size=N/A time=00:00:19.12 bitrate=N/A    frame=  960 fps=7.9 q=24.8 size=N/A time=00:00:19.20 bitrate=N/A    frame=  965 fps=7.9 q=24.8 size=N/A time=00:00:19.30 bitrate=N/A    frame=  970 fps=7.9 q=24.8 size=N/A time=00:00:19.40 bitrate=N/A    frame=  974 fps=7.9 q=24.8 size=N/A time=00:00:19.48 bitrate=N/A    frame=  978 fps=7.9 q=24.8 size=N/A time=00:00:19.56 bitrate=N/A    frame=  982 fps=7.9 q=24.8 size=N/A time=00:00:19.64 bitrate=N/A    frame=  986 fps=7.9 q=24.8 size=N/A time=00:00:19.72 bitrate=N/A    frame=  990 fps=7.9 q=24.8 size=N/A time=00:00:19.80 bitrate=N/A    frame=  994 fps=7.9 q=24.8 size=N/A time=00:00:19.88 bitrate=N/A    frame=  998 fps=7.9 q=24.8 size=N/A time=00:00:19.96 bitrate=N/A    frame= 1002 fps=7.9 q=24.8 size=N/A time=00:00:20.04 bitrate=N/A    frame= 1006 fps=7.9 q=24.8 size=N/A time=00:00:20.12 bitrate=N/A    frame= 1006 fps=7.9 q=24.8 Lsize=N/A time=00:00:20.12 bitrate=N/A    
video:929617kB audio:0kB subtitle:0kB other streams:0kB global headers:0kB muxing overhead: unknown
+ turkic load DJI_0005_gazos_gabonaban_valtok_kotcse_20180710_napos_kalaszos_T4 /home/horvathandras/vatic/vatic/videos/DJI_0005_gazos_gabonaban_valtok_kotcse_20180710_napos_kalaszos_T4 $'Pozit\303\255vROI' $'Negat\303\255vROI' $'T\303\272r\303\241s' '~Friss' '~1-2Hetes' '~Régebbi' '~Egyéb1' '~Egyéb2' '~Egyéb3' $'R\303\241g\303\241s' '~Friss' '~1-2Hetes' '~Régebbi' '~Egyéb1' '~Egyéb2' '~Egyéb3' $'T\303\266r\303\251s' '~Friss' '~1-2Hetes' '~Régebbi' '~Egyéb1' '~Egyéb2' '~Egyéb3' $'Tapos\303\241s' '~Friss' '~1-2Hetes' '~Régebbi' '~Egyéb1' '~Egyéb2' '~Egyéb3' $'Eg\303\251szs\303\251gesN\303\266v\303\251ny' $'Egy\303\251b1' $'Egy\303\251b2' $'Egy\303\251b3' $'Egy\303\251b4' $'Egy\303\251b5' Bizonytalan $'M\305\261vel\305\221\303\272t' $'Gktapos\303\241s' $'Vet\305\221hiba' $'Sz\303\251ld\303\266nt\303\251s' $'J\303\251gk\303\241r' $'Belv\303\255z' $'Asz\303\241ly' $'Er\303\263zi\303\263' $'Egyszik\305\261Gyom' $'K\303\251tszik\305\261Gyom' $'Egy\303\251bN\303\266vv\303\251delmiPR' --offline --title '$filenameNoDot Video' --length 1000 --description 'vatic annotation'
+ turkic publish --offline
+ mkdir /home/horvathandras/vatic/vatic/public/videothumbnails/DJI_0005_gazos_gabonaban_valtok_kotcse_20180710_napos_kalaszos_T4
+ cp /home/horvathandras/vatic/vatic/videos/DJI_0005_gazos_gabonaban_valtok_kotcse_20180710_napos_kalaszos_T4/0/0/31.jpg /home/horvathandras/vatic/vatic/public/videothumbnails/DJI_0005_gazos_gabonaban_valtok_kotcse_20180710_napos_kalaszos_T4/thumb.jpg
